<svg width="377" height="308" viewBox="0 0 377 308" fill="none" xmlns="http://www.w3.org/2000/svg">
<path d="M155.885 53.1477C157.173 53.1477 157.773 52.3306 158.064 51.6843H158.161V53H158.964V43.5455H158.138V47.2617H158.064C157.782 46.6246 157.196 45.8121 155.899 45.8121C154.149 45.8121 152.967 47.2894 152.967 49.473C152.967 51.6751 154.144 53.1477 155.885 53.1477ZM155.982 52.3952C154.569 52.3952 153.794 51.1119 153.794 49.4592C153.794 47.8249 154.56 46.56 155.982 46.56C157.367 46.56 158.152 47.7603 158.152 49.4592C158.152 51.1719 157.358 52.3952 155.982 52.3952ZM163.285 53.1616C164.467 53.1616 165.187 52.506 165.483 51.8782H165.533V53H166.355V48.185C166.355 46.283 164.924 45.8121 163.839 45.8121C162.754 45.8121 161.637 46.2415 161.157 47.4002L161.937 47.6818C162.196 47.0724 162.837 46.5508 163.862 46.5508C164.938 46.5508 165.533 47.1417 165.533 48.1112V48.2773C165.533 48.8129 164.869 48.8221 163.677 48.9698C162.076 49.1683 160.954 49.6161 160.954 51.0195C160.954 52.386 161.997 53.1616 163.285 53.1616ZM163.396 52.4091C162.468 52.4091 161.775 51.9151 161.775 51.0565C161.775 50.1978 162.477 49.8377 163.677 49.69C164.259 49.6207 165.293 49.4915 165.533 49.256V50.2809C165.533 51.4442 164.707 52.4091 163.396 52.4091ZM169.363 48.5682C169.363 47.331 170.175 46.5692 171.292 46.5692C172.382 46.5692 173.084 47.2987 173.084 48.4574V53H173.905V48.4066C173.905 46.7262 172.931 45.8168 171.5 45.8168C170.461 45.8168 169.746 46.2969 169.413 47.0217H169.34V45.9091H168.541V53H169.363V48.5682ZM178.839 53.1477C180.316 53.1477 181.355 52.2152 181.544 50.9318H180.713C180.524 51.8366 179.781 52.3952 178.839 52.3952C177.45 52.3952 176.531 51.1857 176.531 49.4592C176.531 47.7418 177.477 46.56 178.839 46.56C179.85 46.56 180.533 47.2109 180.709 48.0142H181.54C181.346 46.6985 180.247 45.8121 178.825 45.8121C176.969 45.8121 175.705 47.354 175.705 49.4869C175.705 51.6012 176.933 53.1477 178.839 53.1477ZM186.172 53.1477C187.594 53.1477 188.55 52.3768 188.873 51.4858L188.093 51.2319C187.82 51.869 187.179 52.3952 186.172 52.3952C184.723 52.3952 183.804 51.3381 183.767 49.6992H189.048V49.293C189.048 46.9247 187.585 45.8121 186.048 45.8121C184.21 45.8121 182.941 47.3494 182.941 49.4961C182.941 51.6474 184.187 53.1477 186.172 53.1477ZM183.772 48.9744C183.86 47.6541 184.751 46.56 186.048 46.56C187.317 46.56 188.208 47.608 188.208 48.9744H183.772ZM192.84 53.1616C194.022 53.1616 194.742 52.506 195.037 51.8782H195.088V53H195.91V48.185C195.91 46.283 194.479 45.8121 193.394 45.8121C192.309 45.8121 191.192 46.2415 190.712 47.4002L191.492 47.6818C191.75 47.0724 192.392 46.5508 193.417 46.5508C194.492 46.5508 195.088 47.1417 195.088 48.1112V48.2773C195.088 48.8129 194.423 48.8221 193.232 48.9698C191.63 49.1683 190.508 49.6161 190.508 51.0195C190.508 52.386 191.552 53.1616 192.84 53.1616ZM192.951 52.4091C192.023 52.4091 191.33 51.9151 191.33 51.0565C191.33 50.1978 192.032 49.8377 193.232 49.69C193.814 49.6207 194.848 49.4915 195.088 49.256V50.2809C195.088 51.4442 194.262 52.4091 192.951 52.4091ZM198.266 53H199.065V51.6843H199.167C199.453 52.3352 200.053 53.1477 201.346 53.1477C203.086 53.1477 204.263 51.6751 204.263 49.473C204.263 47.2894 203.081 45.8121 201.332 45.8121C200.035 45.8121 199.448 46.6246 199.167 47.2617H199.093V43.5455H198.266V53ZM199.079 49.4592C199.079 47.7603 199.859 46.56 201.244 46.56C202.666 46.56 203.437 47.8249 203.437 49.4592C203.437 51.1119 202.657 52.3952 201.244 52.3952C199.868 52.3952 199.079 51.1719 199.079 49.4592ZM206.078 53H206.904V45.9091H206.078V53ZM206.498 44.6903C206.835 44.6903 207.116 44.4226 207.116 44.0994C207.116 43.7763 206.835 43.5085 206.498 43.5085C206.161 43.5085 205.884 43.7763 205.884 44.0994C205.884 44.4226 206.161 44.6903 206.498 44.6903ZM209.899 43.5455H209.077V53H209.899V43.5455ZM212.082 53H212.909V45.9091H212.082V53ZM212.502 44.6903C212.839 44.6903 213.121 44.4226 213.121 44.0994C213.121 43.7763 212.839 43.5085 212.502 43.5085C212.165 43.5085 211.888 43.7763 211.888 44.0994C211.888 44.4226 212.165 44.6903 212.502 44.6903ZM217.875 45.9091H216.375V44.2102H215.548V45.9091H214.491V46.6246H215.548V51.3427C215.548 52.5014 216.462 53.1062 217.372 53.1062C217.713 53.1062 217.944 53.0415 218.101 52.9815L217.926 52.2383C217.81 52.2706 217.663 52.3029 217.446 52.3029C216.887 52.3029 216.375 52.0398 216.375 51.1488V46.6246H217.875V45.9091ZM220.314 55.6591C221.2 55.6591 221.851 55.1513 222.229 54.1218L225.235 45.9229L224.339 45.9091L222.234 51.9151H222.169L220.064 45.9091H219.173L221.782 53.0692L221.523 53.7894C221.131 54.8604 220.577 55.0497 219.741 54.7866L219.52 55.5114C219.686 55.5898 219.99 55.6591 220.314 55.6591ZM180.721 66.2727C180.721 68.484 181.303 70.4506 182.346 72.1818H183.094C182.198 70.7369 181.57 68.4009 181.57 66.2727C181.57 64.1491 182.194 61.8132 183.094 60.3636H182.346C181.303 62.0856 180.721 64.0568 180.721 66.2727ZM189.636 69.2457C189.636 70.3029 190.292 71.1293 191.386 71.1293C192.466 71.1293 193.122 70.3029 193.122 69.2457V68.8164C193.122 67.7592 192.476 66.9329 191.386 66.9329C190.306 66.9329 189.636 67.7592 189.636 68.8164V69.2457ZM184.872 63.729C184.872 64.7862 185.528 65.6126 186.622 65.6126C187.702 65.6126 188.358 64.7862 188.358 63.729V63.2997C188.358 62.2425 187.711 61.4162 186.622 61.4162C185.542 61.4162 184.872 62.2425 184.872 63.2997V63.729ZM185.297 71H186.119L192.61 61.5455H191.792L185.297 71ZM190.361 68.8164C190.361 68.1193 190.717 67.5607 191.386 67.5607C192.065 67.5607 192.393 68.1193 192.393 68.8164V69.2457C192.393 69.9428 192.051 70.5014 191.386 70.5014C190.708 70.5014 190.361 69.9428 190.361 69.2457V68.8164ZM185.597 63.2997C185.597 62.6026 185.953 62.044 186.622 62.044C187.301 62.044 187.628 62.6026 187.628 63.2997V63.729C187.628 64.4261 187.287 64.9847 186.622 64.9847C185.943 64.9847 185.597 64.4261 185.597 63.729V63.2997ZM197.278 66.2727C197.278 64.0614 196.696 62.0948 195.653 60.3636H194.905C195.801 61.8086 196.428 64.1445 196.428 66.2727C196.428 68.3963 195.805 70.7322 194.905 72.1818H195.653C196.696 70.4599 197.278 68.4886 197.278 66.2727Z" fill="white"/>
<path d="M78.9727 122.148C80.3946 122.148 81.3502 121.377 81.6733 120.486L80.8932 120.232C80.6208 120.869 79.9791 121.395 78.9727 121.395C77.5231 121.395 76.6044 120.338 76.5675 118.699H81.8488V118.293C81.8488 115.925 80.3853 114.812 78.8481 114.812C77.0107 114.812 75.7412 116.349 75.7412 118.496C75.7412 120.647 76.9876 122.148 78.9727 122.148ZM76.5721 117.974C76.6598 116.654 77.5508 115.56 78.8481 115.56C80.1176 115.56 81.0086 116.608 81.0086 117.974H76.5721ZM84.4813 117.568C84.4813 116.331 85.2938 115.569 86.411 115.569C87.5005 115.569 88.2022 116.299 88.2022 117.457V122H89.0239V117.407C89.0239 115.726 88.0498 114.817 86.6187 114.817C85.58 114.817 84.8645 115.297 84.5321 116.022H84.4582V114.909H83.6596V122H84.4813V117.568ZM94.0547 122.148C95.4766 122.148 96.4322 121.377 96.7554 120.486L95.9752 120.232C95.7028 120.869 95.0611 121.395 94.0547 121.395C92.6052 121.395 91.6865 120.338 91.6495 118.699H96.9308V118.293C96.9308 115.925 95.4674 114.812 93.9301 114.812C92.0927 114.812 90.8232 116.349 90.8232 118.496C90.8232 120.647 92.0696 122.148 94.0547 122.148ZM91.6542 117.974C91.7419 116.654 92.6329 115.56 93.9301 115.56C95.1996 115.56 96.0906 116.608 96.0906 117.974H91.6542ZM98.7416 122H99.5633V117.42C99.5633 116.368 100.371 115.606 101.479 115.606C101.696 115.606 101.899 115.643 101.973 115.652V114.817C101.862 114.812 101.673 114.803 101.539 114.803C100.648 114.803 99.8865 115.283 99.6003 115.999H99.5403V114.909H98.7416V122ZM105.865 124.807C107.545 124.807 108.792 123.985 108.792 122.185V114.909H107.988V116.262H107.905C107.614 115.625 107.028 114.812 105.726 114.812C103.972 114.812 102.795 116.28 102.795 118.436C102.795 120.61 104.014 121.926 105.712 121.926C106.987 121.926 107.61 121.188 107.891 120.537H107.965V122.134C107.965 123.454 107.121 124.068 105.865 124.068C104.651 124.068 104.069 123.482 103.769 122.942L103.095 123.385C103.51 124.197 104.415 124.807 105.865 124.807ZM105.809 121.174C104.401 121.174 103.621 120.047 103.621 118.422C103.621 116.825 104.388 115.56 105.809 115.56C107.199 115.56 107.979 116.76 107.979 118.422C107.979 120.135 107.176 121.174 105.809 121.174ZM111.54 124.659C112.426 124.659 113.077 124.151 113.455 123.122L116.461 114.923L115.565 114.909L113.46 120.915H113.395L111.29 114.909H110.399L113.008 122.069L112.749 122.789C112.357 123.86 111.803 124.05 110.967 123.787L110.746 124.511C110.912 124.59 111.216 124.659 111.54 124.659ZM87.7209 135.273C87.7209 137.484 88.3026 139.451 89.3459 141.182H90.0938C89.1982 139.737 88.5704 137.401 88.5704 135.273C88.5704 133.149 89.1936 130.813 90.0938 129.364H89.3459C88.3026 131.086 87.7209 133.057 87.7209 135.273ZM96.6365 138.246C96.6365 139.303 97.292 140.129 98.3861 140.129C99.4664 140.129 100.122 139.303 100.122 138.246V137.816C100.122 136.759 99.4756 135.933 98.3861 135.933C97.3059 135.933 96.6365 136.759 96.6365 137.816V138.246ZM91.8723 132.729C91.8723 133.786 92.5278 134.613 93.6219 134.613C94.7022 134.613 95.3577 133.786 95.3577 132.729V132.3C95.3577 131.243 94.7114 130.416 93.6219 130.416C92.5417 130.416 91.8723 131.243 91.8723 132.3V132.729ZM92.297 140H93.1187L99.6095 130.545H98.7924L92.297 140ZM97.3613 137.816C97.3613 137.119 97.7168 136.561 98.3861 136.561C99.0648 136.561 99.3925 137.119 99.3925 137.816V138.246C99.3925 138.943 99.0509 139.501 98.3861 139.501C97.7075 139.501 97.3613 138.943 97.3613 138.246V137.816ZM92.5971 132.3C92.5971 131.603 92.9525 131.044 93.6219 131.044C94.3006 131.044 94.6283 131.603 94.6283 132.3V132.729C94.6283 133.426 94.2867 133.985 93.6219 133.985C92.9433 133.985 92.5971 133.426 92.5971 132.729V132.3ZM104.278 135.273C104.278 133.061 103.696 131.095 102.653 129.364H101.905C102.801 130.809 103.428 133.145 103.428 135.273C103.428 137.396 102.805 139.732 101.905 141.182H102.653C103.696 139.46 104.278 137.489 104.278 135.273Z" fill="white"/>
<path d="M264.973 122.148C266.395 122.148 267.35 121.377 267.673 120.486L266.893 120.232C266.621 120.869 265.979 121.395 264.973 121.395C263.523 121.395 262.604 120.338 262.568 118.699H267.849V118.293C267.849 115.925 266.385 114.812 264.848 114.812C263.011 114.812 261.741 116.349 261.741 118.496C261.741 120.647 262.988 122.148 264.973 122.148ZM262.572 117.974C262.66 116.654 263.551 115.56 264.848 115.56C266.118 115.56 267.009 116.608 267.009 117.974H262.572ZM270.481 117.568C270.481 116.331 271.294 115.569 272.411 115.569C273.5 115.569 274.202 116.299 274.202 117.457V122H275.024V117.407C275.024 115.726 274.05 114.817 272.619 114.817C271.58 114.817 270.864 115.297 270.532 116.022H270.458V114.909H269.66V122H270.481V117.568ZM280.055 122.148C281.477 122.148 282.432 121.377 282.755 120.486L281.975 120.232C281.703 120.869 281.061 121.395 280.055 121.395C278.605 121.395 277.686 120.338 277.65 118.699H282.931V118.293C282.931 115.925 281.467 114.812 279.93 114.812C278.093 114.812 276.823 116.349 276.823 118.496C276.823 120.647 278.07 122.148 280.055 122.148ZM277.654 117.974C277.742 116.654 278.633 115.56 279.93 115.56C281.2 115.56 282.091 116.608 282.091 117.974H277.654ZM284.742 122H285.563V117.42C285.563 116.368 286.371 115.606 287.479 115.606C287.696 115.606 287.899 115.643 287.973 115.652V114.817C287.862 114.812 287.673 114.803 287.539 114.803C286.648 114.803 285.886 115.283 285.6 115.999H285.54V114.909H284.742V122ZM291.865 124.807C293.545 124.807 294.792 123.985 294.792 122.185V114.909H293.988V116.262H293.905C293.614 115.625 293.028 114.812 291.726 114.812C289.972 114.812 288.795 116.28 288.795 118.436C288.795 120.61 290.014 121.926 291.712 121.926C292.987 121.926 293.61 121.188 293.891 120.537H293.965V122.134C293.965 123.454 293.121 124.068 291.865 124.068C290.651 124.068 290.069 123.482 289.769 122.942L289.095 123.385C289.51 124.197 290.415 124.807 291.865 124.807ZM291.809 121.174C290.401 121.174 289.621 120.047 289.621 118.422C289.621 116.825 290.388 115.56 291.809 115.56C293.199 115.56 293.979 116.76 293.979 118.422C293.979 120.135 293.176 121.174 291.809 121.174ZM297.54 124.659C298.426 124.659 299.077 124.151 299.455 123.122L302.461 114.923L301.565 114.909L299.46 120.915H299.395L297.29 114.909H296.399L299.008 122.069L298.749 122.789C298.357 123.86 297.803 124.05 296.967 123.787L296.746 124.511C296.912 124.59 297.216 124.659 297.54 124.659ZM273.721 135.273C273.721 137.484 274.303 139.451 275.346 141.182H276.094C275.198 139.737 274.57 137.401 274.57 135.273C274.57 133.149 275.194 130.813 276.094 129.364H275.346C274.303 131.086 273.721 133.057 273.721 135.273ZM282.636 138.246C282.636 139.303 283.292 140.129 284.386 140.129C285.466 140.129 286.122 139.303 286.122 138.246V137.816C286.122 136.759 285.476 135.933 284.386 135.933C283.306 135.933 282.636 136.759 282.636 137.816V138.246ZM277.872 132.729C277.872 133.786 278.528 134.613 279.622 134.613C280.702 134.613 281.358 133.786 281.358 132.729V132.3C281.358 131.243 280.711 130.416 279.622 130.416C278.542 130.416 277.872 131.243 277.872 132.3V132.729ZM278.297 140H279.119L285.61 130.545H284.792L278.297 140ZM283.361 137.816C283.361 137.119 283.717 136.561 284.386 136.561C285.065 136.561 285.393 137.119 285.393 137.816V138.246C285.393 138.943 285.051 139.501 284.386 139.501C283.708 139.501 283.361 138.943 283.361 138.246V137.816ZM278.597 132.3C278.597 131.603 278.953 131.044 279.622 131.044C280.301 131.044 280.628 131.603 280.628 132.3V132.729C280.628 133.426 280.287 133.985 279.622 133.985C278.943 133.985 278.597 133.426 278.597 132.729V132.3ZM290.278 135.273C290.278 133.061 289.696 131.095 288.653 129.364H287.905C288.801 130.809 289.428 133.145 289.428 135.273C289.428 137.396 288.805 139.732 287.905 141.182H288.653C289.696 139.46 290.278 137.489 290.278 135.273Z" fill="white"/>
<path d="M206.124 206.545H205.303V216H206.124V206.545ZM211.055 216.148C212.892 216.148 214.176 214.647 214.176 212.487C214.176 210.312 212.892 208.812 211.055 208.812C209.217 208.812 207.934 210.312 207.934 212.487C207.934 214.647 209.217 216.148 211.055 216.148ZM211.055 215.395C209.582 215.395 208.76 214.075 208.76 212.487C208.76 210.899 209.582 209.56 211.055 209.56C212.527 209.56 213.349 210.899 213.349 212.487C213.349 214.075 212.527 215.395 211.055 215.395ZM220.485 213.29C220.485 214.592 219.506 215.294 218.546 215.294C217.521 215.294 216.801 214.56 216.801 213.452V208.909H215.979V213.502C215.979 215.183 216.949 216.092 218.311 216.092C219.349 216.092 220.088 215.552 220.42 214.823H220.485V216H221.307V208.909H220.485V213.29ZM226.035 216.148C227.323 216.148 227.923 215.331 228.214 214.684H228.311V216H229.114V206.545H228.288V210.262H228.214C227.933 209.625 227.346 208.812 226.049 208.812C224.299 208.812 223.118 210.289 223.118 212.473C223.118 214.675 224.295 216.148 226.035 216.148ZM226.132 215.395C224.72 215.395 223.944 214.112 223.944 212.459C223.944 210.825 224.71 209.56 226.132 209.56C227.517 209.56 228.302 210.76 228.302 212.459C228.302 214.172 227.508 215.395 226.132 215.395ZM232.277 211.568C232.277 210.331 233.089 209.569 234.206 209.569C235.296 209.569 235.998 210.299 235.998 211.457V216H236.819V211.407C236.819 209.726 235.845 208.817 234.414 208.817C233.375 208.817 232.66 209.297 232.328 210.022H232.254V208.909H231.455V216H232.277V211.568ZM241.85 216.148C243.272 216.148 244.228 215.377 244.551 214.486L243.771 214.232C243.498 214.869 242.857 215.395 241.85 215.395C240.401 215.395 239.482 214.338 239.445 212.699H244.726V212.293C244.726 209.925 243.263 208.812 241.725 208.812C239.888 208.812 238.619 210.349 238.619 212.496C238.619 214.647 239.865 216.148 241.85 216.148ZM239.45 211.974C239.537 210.654 240.428 209.56 241.725 209.56C242.995 209.56 243.886 210.608 243.886 211.974H239.45ZM251.301 210.465C250.955 209.44 250.198 208.812 248.901 208.812C247.47 208.812 246.431 209.629 246.431 210.797C246.431 211.748 247.008 212.395 248.241 212.69L249.399 212.967C250.179 213.152 250.553 213.553 250.553 214.121C250.553 214.86 249.847 215.409 248.758 215.409C247.788 215.409 247.183 214.971 246.985 214.13L246.195 214.324C246.445 215.506 247.382 216.148 248.771 216.148C250.332 216.148 251.403 215.289 251.403 214.084C251.403 213.138 250.807 212.505 249.621 212.214L248.55 211.951C247.668 211.73 247.257 211.374 247.257 210.76C247.257 210.04 247.945 209.537 248.901 209.537C249.856 209.537 250.327 210.04 250.549 210.677L251.301 210.465ZM257.966 210.465C257.62 209.44 256.863 208.812 255.566 208.812C254.135 208.812 253.096 209.629 253.096 210.797C253.096 211.748 253.673 212.395 254.906 212.69L256.064 212.967C256.844 213.152 257.218 213.553 257.218 214.121C257.218 214.86 256.512 215.409 255.423 215.409C254.453 215.409 253.848 214.971 253.65 214.13L252.86 214.324C253.11 215.506 254.047 216.148 255.436 216.148C256.997 216.148 258.068 215.289 258.068 214.084C258.068 213.138 257.472 212.505 256.286 212.214L255.215 211.951C254.333 211.73 253.922 211.374 253.922 210.76C253.922 210.04 254.61 209.537 255.566 209.537C256.521 209.537 256.992 210.04 257.214 210.677L257.966 210.465ZM223.221 229.273C223.221 231.484 223.803 233.451 224.846 235.182H225.594C224.698 233.737 224.07 231.401 224.07 229.273C224.07 227.149 224.694 224.813 225.594 223.364H224.846C223.803 225.086 223.221 227.057 223.221 229.273ZM232.136 232.246C232.136 233.303 232.792 234.129 233.886 234.129C234.966 234.129 235.622 233.303 235.622 232.246V231.816C235.622 230.759 234.976 229.933 233.886 229.933C232.806 229.933 232.136 230.759 232.136 231.816V232.246ZM227.372 226.729C227.372 227.786 228.028 228.613 229.122 228.613C230.202 228.613 230.858 227.786 230.858 226.729V226.3C230.858 225.243 230.211 224.416 229.122 224.416C228.042 224.416 227.372 225.243 227.372 226.3V226.729ZM227.797 234H228.619L235.11 224.545H234.292L227.797 234ZM232.861 231.816C232.861 231.119 233.217 230.561 233.886 230.561C234.565 230.561 234.893 231.119 234.893 231.816V232.246C234.893 232.943 234.551 233.501 233.886 233.501C233.208 233.501 232.861 232.943 232.861 232.246V231.816ZM228.097 226.3C228.097 225.603 228.453 225.044 229.122 225.044C229.801 225.044 230.128 225.603 230.128 226.3V226.729C230.128 227.426 229.787 227.985 229.122 227.985C228.443 227.985 228.097 227.426 228.097 226.729V226.3ZM239.778 229.273C239.778 227.061 239.196 225.095 238.153 223.364H237.405C238.301 224.809 238.928 227.145 238.928 229.273C238.928 231.396 238.305 233.732 237.405 235.182H238.153C239.196 233.46 239.778 231.489 239.778 229.273Z" fill="white"/>
<path d="M119.112 210.465C118.766 209.44 118.009 208.812 116.712 208.812C115.281 208.812 114.242 209.629 114.242 210.797C114.242 211.748 114.819 212.395 116.052 212.69L117.21 212.967C117.99 213.152 118.364 213.553 118.364 214.121C118.364 214.86 117.658 215.409 116.569 215.409C115.599 215.409 114.994 214.971 114.796 214.13L114.006 214.324C114.256 215.506 115.193 216.148 116.582 216.148C118.143 216.148 119.214 215.289 119.214 214.084C119.214 213.138 118.618 212.505 117.432 212.214L116.361 211.951C115.479 211.73 115.068 211.374 115.068 210.76C115.068 210.04 115.756 209.537 116.712 209.537C117.667 209.537 118.138 210.04 118.36 210.677L119.112 210.465ZM120.999 218.659H121.826V214.684H121.899C122.181 215.335 122.79 216.148 124.078 216.148C125.814 216.148 126.996 214.67 126.996 212.473C126.996 210.285 125.819 208.812 124.065 208.812C122.763 208.812 122.186 209.625 121.899 210.262H121.798V208.909H120.999V218.659ZM121.812 212.459C121.812 210.76 122.592 209.56 123.977 209.56C125.403 209.56 126.17 210.825 126.17 212.459C126.17 214.112 125.39 215.395 123.977 215.395C122.606 215.395 121.812 214.172 121.812 212.459ZM131.662 216.148C133.084 216.148 134.04 215.377 134.363 214.486L133.583 214.232C133.31 214.869 132.669 215.395 131.662 215.395C130.213 215.395 129.294 214.338 129.257 212.699H134.538V212.293C134.538 209.925 133.075 208.812 131.538 208.812C129.7 208.812 128.431 210.349 128.431 212.496C128.431 214.647 129.677 216.148 131.662 216.148ZM129.262 211.974C129.349 210.654 130.24 209.56 131.538 209.56C132.807 209.56 133.698 210.608 133.698 211.974H129.262ZM138.33 216.162C139.511 216.162 140.231 215.506 140.527 214.878H140.578V216H141.399V211.185C141.399 209.283 139.968 208.812 138.883 208.812C137.799 208.812 136.681 209.241 136.201 210.4L136.981 210.682C137.24 210.072 137.882 209.551 138.907 209.551C139.982 209.551 140.578 210.142 140.578 211.111V211.277C140.578 211.813 139.913 211.822 138.722 211.97C137.12 212.168 135.998 212.616 135.998 214.02C135.998 215.386 137.042 216.162 138.33 216.162ZM138.44 215.409C137.512 215.409 136.82 214.915 136.82 214.056C136.82 213.198 137.522 212.838 138.722 212.69C139.304 212.621 140.338 212.491 140.578 212.256V213.281C140.578 214.444 139.751 215.409 138.44 215.409ZM146.355 216.148C147.833 216.148 148.871 215.215 149.061 213.932H148.23C148.04 214.837 147.297 215.395 146.355 215.395C144.966 215.395 144.047 214.186 144.047 212.459C144.047 210.742 144.993 209.56 146.355 209.56C147.366 209.56 148.049 210.211 148.225 211.014H149.056C148.862 209.699 147.763 208.812 146.341 208.812C144.486 208.812 143.221 210.354 143.221 212.487C143.221 214.601 144.449 216.148 146.355 216.148ZM151.643 211.568C151.643 210.331 152.474 209.569 153.61 209.569C154.709 209.569 155.41 210.289 155.41 211.457V216H156.237V211.407C156.237 209.717 155.258 208.817 153.818 208.817C152.747 208.817 152.05 209.288 151.717 210.022H151.643V206.545H150.822V216H151.643V211.568ZM158.41 216H159.236V208.909H158.41V216ZM158.83 207.69C159.167 207.69 159.449 207.423 159.449 207.099C159.449 206.776 159.167 206.509 158.83 206.509C158.493 206.509 158.216 206.776 158.216 207.099C158.216 207.423 158.493 207.69 158.83 207.69ZM162.231 211.568C162.231 210.331 163.044 209.569 164.161 209.569C165.25 209.569 165.952 210.299 165.952 211.457V216H166.774V211.407C166.774 209.726 165.8 208.817 164.369 208.817C163.33 208.817 162.614 209.297 162.282 210.022H162.208V208.909H161.41V216H162.231V211.568ZM171.805 216.148C173.227 216.148 174.182 215.377 174.505 214.486L173.725 214.232C173.453 214.869 172.811 215.395 171.805 215.395C170.355 215.395 169.436 214.338 169.4 212.699H174.681V212.293C174.681 209.925 173.217 208.812 171.68 208.812C169.843 208.812 168.573 210.349 168.573 212.496C168.573 214.647 169.82 216.148 171.805 216.148ZM169.404 211.974C169.492 210.654 170.383 209.56 171.68 209.56C172.95 209.56 173.841 210.608 173.841 211.974H169.404ZM181.256 210.465C180.91 209.44 180.152 208.812 178.855 208.812C177.424 208.812 176.385 209.629 176.385 210.797C176.385 211.748 176.962 212.395 178.195 212.69L179.354 212.967C180.134 213.152 180.508 213.553 180.508 214.121C180.508 214.86 179.802 215.409 178.712 215.409C177.743 215.409 177.138 214.971 176.939 214.13L176.15 214.324C176.399 215.506 177.336 216.148 178.726 216.148C180.286 216.148 181.357 215.289 181.357 214.084C181.357 213.138 180.762 212.505 179.575 212.214L178.504 211.951C177.623 211.73 177.212 211.374 177.212 210.76C177.212 210.04 177.9 209.537 178.855 209.537C179.811 209.537 180.282 210.04 180.503 210.677L181.256 210.465ZM187.921 210.465C187.575 209.44 186.818 208.812 185.52 208.812C184.089 208.812 183.05 209.629 183.05 210.797C183.05 211.748 183.628 212.395 184.86 212.69L186.019 212.967C186.799 213.152 187.173 213.553 187.173 214.121C187.173 214.86 186.467 215.409 185.377 215.409C184.408 215.409 183.803 214.971 183.604 214.13L182.815 214.324C183.064 215.506 184.001 216.148 185.391 216.148C186.951 216.148 188.022 215.289 188.022 214.084C188.022 213.138 187.427 212.505 186.24 212.214L185.169 211.951C184.288 211.73 183.877 211.374 183.877 210.76C183.877 210.04 184.565 209.537 185.52 209.537C186.476 209.537 186.947 210.04 187.168 210.677L187.921 210.465ZM142.721 229.273C142.721 231.484 143.303 233.451 144.346 235.182H145.094C144.198 233.737 143.57 231.401 143.57 229.273C143.57 227.149 144.194 224.813 145.094 223.364H144.346C143.303 225.086 142.721 227.057 142.721 229.273ZM151.636 232.246C151.636 233.303 152.292 234.129 153.386 234.129C154.466 234.129 155.122 233.303 155.122 232.246V231.816C155.122 230.759 154.476 229.933 153.386 229.933C152.306 229.933 151.636 230.759 151.636 231.816V232.246ZM146.872 226.729C146.872 227.786 147.528 228.613 148.622 228.613C149.702 228.613 150.358 227.786 150.358 226.729V226.3C150.358 225.243 149.711 224.416 148.622 224.416C147.542 224.416 146.872 225.243 146.872 226.3V226.729ZM147.297 234H148.119L154.61 224.545H153.792L147.297 234ZM152.361 231.816C152.361 231.119 152.717 230.561 153.386 230.561C154.065 230.561 154.393 231.119 154.393 231.816V232.246C154.393 232.943 154.051 233.501 153.386 233.501C152.708 233.501 152.361 232.943 152.361 232.246V231.816ZM147.597 226.3C147.597 225.603 147.953 225.044 148.622 225.044C149.301 225.044 149.628 225.603 149.628 226.3V226.729C149.628 227.426 149.287 227.985 148.622 227.985C147.943 227.985 147.597 227.426 147.597 226.729V226.3ZM159.278 229.273C159.278 227.061 158.696 225.095 157.653 223.364H156.905C157.801 224.809 158.428 227.145 158.428 229.273C158.428 231.396 157.805 233.732 156.905 235.182H157.653C158.696 233.46 159.278 231.489 159.278 229.273Z" fill="white"/>
<path d="M129 125.113L189 81L249 125.113L226.119 196H152.136L129 125.113Z" fill="black" stroke="white"/>
<path d="M146 131.455L189 100L232 131.455L215.602 182H162.581L146 131.455Z" stroke="white"/>
<path d="M162 136.947L189 117L216 136.947L205.703 169H172.411L162 136.947Z" stroke="white"/>
<rect x="0.5" y="0.5" width="376" height="307" stroke="white" stroke-dasharray="5 10"/>
<path d="M136.693 279H138.339V274.243H143.778V279H145.429V268.091H143.778V272.832H138.339V268.091H136.693V279ZM157.302 273.545C157.302 270.056 155.214 267.942 152.391 267.942C149.557 267.942 147.474 270.056 147.474 273.545C147.474 277.029 149.557 279.149 152.391 279.149C155.214 279.149 157.302 277.034 157.302 273.545ZM155.672 273.545C155.672 276.203 154.266 277.647 152.391 277.647C150.511 277.647 149.11 276.203 149.11 273.545C149.11 270.887 150.511 269.444 152.391 269.444C154.266 269.444 155.672 270.887 155.672 273.545ZM161.358 279H163.02L165.316 270.829H165.401L167.697 279H169.354L172.385 268.091H170.648L168.528 276.544H168.427L166.216 268.091H164.501L162.291 276.539H162.189L160.064 268.091H158.333L161.358 279ZM177.317 269.508H180.716V279H182.356V269.508H185.76V268.091H177.317V269.508ZM196.648 273.545C196.648 270.056 194.56 267.942 191.737 267.942C188.903 267.942 186.82 270.056 186.82 273.545C186.82 277.029 188.903 279.149 191.737 279.149C194.56 279.149 196.648 277.034 196.648 273.545ZM195.018 273.545C195.018 276.203 193.612 277.647 191.737 277.647C189.856 277.647 188.455 276.203 188.455 273.545C188.455 270.887 189.856 269.444 191.737 269.444C193.612 269.444 195.018 270.887 195.018 273.545ZM202.67 279H204.316V274.872H206.553C206.59 274.872 206.622 274.872 206.659 274.872L208.875 279H210.75L208.332 274.584C209.669 274.089 210.335 272.975 210.335 271.511C210.335 269.502 209.088 268.091 206.558 268.091H202.67V279ZM204.316 273.455V269.502H206.382C208.007 269.502 208.678 270.275 208.678 271.511C208.678 272.741 208.007 273.455 206.404 273.455H204.316ZM212.338 279H219.241V277.583H213.984V274.243H218.82V272.832H213.984V269.508H219.177V268.091H212.338V279ZM222.297 279L223.299 276.113H227.56L228.556 279H230.303L226.378 268.091H224.476L220.55 279H222.297ZM223.778 274.728L225.387 270.072H225.472L227.081 274.728H223.778ZM235.41 279C238.734 279 240.657 276.939 240.657 273.529C240.657 270.136 238.734 268.091 235.522 268.091H231.879V279H235.41ZM233.525 277.562V269.529H235.421C237.807 269.529 239.038 270.957 239.038 273.529C239.038 276.113 237.807 277.562 235.32 277.562H233.525Z" fill="white"/>
</svg>
